<svg width="30" height="31" viewBox="0 0 30 31" fill="none" xmlns="http://www.w3.org/2000/svg">
<g clip-path="url(#clip0_35_105)">
<path d="M17.8953 11.872C17.7222 11.385 17.4027 10.9635 16.9808 10.665C16.5588 10.3666 16.055 10.2059 15.5382 10.2048H13.6032C13.0511 10.2019 12.5176 10.4038 12.1058 10.7715C11.694 11.1392 11.4332 11.6465 11.3737 12.1953C11.3143 12.7441 11.4605 13.2955 11.784 13.7428C12.1075 14.1901 12.5855 14.5016 13.1253 14.617L16.0717 15.2598C16.6742 15.3917 17.2067 15.7416 17.5669 16.2422C17.9271 16.7429 18.0895 17.3589 18.0231 17.9721C17.9566 18.5852 17.666 19.1522 17.2069 19.5641C16.7478 19.9759 16.1528 20.2036 15.536 20.2034H13.871C12.7825 20.2034 11.8567 19.5091 11.5139 18.5384M14.7046 10.2048V7.7041M14.7046 22.7041V20.2055M4.28174 29.4262V24.0691H9.63888" stroke="#1E1E1E" stroke-width="2.57143" stroke-linecap="round" stroke-linejoin="round"/>
<path d="M28.6887 12.9371C29.2576 15.9697 28.8034 19.1053 27.3974 21.8519C25.9915 24.5984 23.7133 26.8004 20.9206 28.1122C18.1278 29.424 14.9786 29.7713 11.967 29.0997C8.95553 28.428 6.25227 26.7755 4.28155 24.4013M1.31155 18.0628C0.742677 15.0302 1.19686 11.8945 2.60281 9.14797C4.00877 6.40141 6.2869 4.19944 9.07966 2.88765C11.8724 1.57587 15.0217 1.22853 18.0332 1.90015C21.0447 2.57178 23.748 4.22435 25.7187 6.59849" stroke="#1E1E1E" stroke-width="2.57143" stroke-linecap="round" stroke-linejoin="round"/>
<path d="M25.7185 1.57568V6.93283H20.3613" stroke="#1E1E1E" stroke-width="2.57143" stroke-linecap="round" stroke-linejoin="round"/>
</g>
<defs>
<clipPath id="clip0_35_105">
<rect width="30" height="30" fill="white" transform="translate(0 0.5)"/>
</clipPath>
</defs>
</svg>
